<svg xmlns="http://www.w3.org/2000/svg"><metadata/><defs><font id="minecraftiaregular" horiz-adv-x="1536"><font-face ascent="3072" descent="1024" units-per-em="2048"/><glyph horiz-adv-x="0"/><glyph horiz-adv-x="512"/><glyph horiz-adv-x="512"/><glyph horiz-adv-x="512"/><glyph horiz-adv-x="512"/><glyph d="M0 1280v256h256v-256h-256zM0 1792v1280h256v-1280h-256z" horiz-adv-x="512" unicode="!"/><glyph d="M0 2560v512h256v-512h-256zM512 2560v512h256v-512h-256z" horiz-adv-x="1024" unicode="&quot;"/><glyph d="M0 1792v256h256v256h-256v256h256v512h256v-512h256v512h256v-512h256v-256h-256v-256h256v-256h-256v-512h-256v512h-256v-512h-256v512h-256zM512 2048h256v256h-256v-256z" unicode="#"/><glyph d="M0 1536v256h1024v-256h-256v-256h-256v256h-512zM0 2304v256h256v-256h-256zM256 2048v256h768v-256h-768zM256 2560v256h256v256h256v-256h512v-256h-1024zM1024 1792v256h256v-256h-256z" unicode="$"/><glyph d="M0 1280v256h256v-256h-256zM0 2560v512h256v-512h-256zM256 1536v512h256v-512h-256zM512 2048v256h256v-256h-256zM768 2304v512h256v-512h-256zM1024 1280v512h256v-512h-256zM1024 2816v256h256v-256h-256z" unicode="%"/><glyph d="M0 1536v512h256v-512h-256zM256 1280v256h512v-256h-512zM256 2048v256h256v256h256v-512h256v-512h-256v256h-256v256h-256zM256 2560v256h256v-256h-256zM512 2816v256h256v-256h-256zM768 2560v256h256v-256h-256zM1024 1280v256h256v-256h-256zM1024 2048v256h256 v-256h-256z" unicode="&amp;"/><glyph d="M0 2560v512h256v-512h-256z" horiz-adv-x="512" unicode="'"/><glyph d="M0 1792v768h256v-768h-256zM256 1536v256h256v-256h-256zM256 2560v256h256v-256h-256zM512 1280v256h512v-256h-512zM512 2816v256h512v-256h-512z" horiz-adv-x="1280" unicode="("/><glyph d="M0 1280v256h512v-256h-512zM0 2816v256h512v-256h-512zM512 1536v256h256v-256h-256zM512 2560v256h256v-256h-256zM768 1792v768h256v-768h-256z" horiz-adv-x="1280" unicode=")"/><glyph d="M0 2304v256h256v-256h-256zM0 2816v256h256v-256h-256zM256 2560v256h512v-256h-512zM768 2304v256h256v-256h-256zM768 2816v256h256v-256h-256z" horiz-adv-x="1280" unicode="*"/><glyph d="M0 1792v256h512v512h256v-512h512v-256h-512v-512h-256v512h-512z" unicode="+"/><glyph d="M0 1024v768h256v-768h-256z" horiz-adv-x="512" unicode=","/><glyph d="M0 1792v256h1280v-256h-1280z" unicode="-"/><glyph d="M0 1280v512h256v-512h-256z" horiz-adv-x="512" unicode="."/><glyph d="M0 1280v256h256v-256h-256zM256 1536v512h256v-512h-256zM512 2048v256h256v-256h-256zM768 2304v512h256v-512h-256zM1024 2816v256h256v-256h-256z" unicode="/"/><glyph d="M0 1536v1280h256v-768h256v-256h-256v-256h-256zM256 1280v256h768v-256h-768zM256 2816v256h768v-256h-768zM512 2048v256h256v-256h-256zM768 2304v256h256v256h256v-1280h-256v768h-256z" unicode="0"/><glyph d="M0 1280v256h512v1024h-256v256h256v256h256v-1536h512v-256h-1280z" unicode="1"/><glyph d="M0 1280v512h256v-256h1024v-256h-1280zM0 2560v256h256v-256h-256zM256 1792v256h256v-256h-256zM256 2816v256h768v-256h-768zM512 2048v256h512v-256h-512zM1024 2304v512h256v-512h-256z" unicode="2"/><glyph d="M0 1536v256h256v-256h-256zM0 2560v256h256v-256h-256zM256 1280v256h768v-256h-768zM256 2816v256h768v-256h-768zM512 2048v256h512v-256h-512zM1024 1536v512h256v-512h-256zM1024 2304v512h256v-512h-256z" unicode="3"/><glyph d="M0 1792v512h256v-256h768v768h-256v256h512v-1792h-256v512h-1024zM256 2304v256h256v-256h-256zM512 2560v256h256v-256h-256z" unicode="4"/><glyph d="M0 1536v256h256v-256h-256zM0 2304v768h1280v-256h-1024v-256h768v-256h-1024zM256 1280v256h768v-256h-768zM1024 1536v768h256v-768h-256z" unicode="5"/><glyph d="M0 1536v1024h256v-256h768v-256h-768v-512h-256zM256 1280v256h768v-256h-768zM256 2560v256h256v-256h-256zM512 2816v256h512v-256h-512zM1024 1536v512h256v-512h-256z" unicode="6"/><glyph d="M0 2560v512h1280v-768h-256v512h-768v-256h-256zM512 1280v768h256v-768h-256zM768 2048v256h256v-256h-256z" unicode="7"/><glyph d="M0 1536v512h256v-512h-256zM0 2304v512h256v-512h-256zM256 1280v256h768v-256h-768zM256 2048v256h768v-256h-768zM256 2816v256h768v-256h-768zM1024 1536v512h256v-512h-256zM1024 2304v512h256v-512h-256z" unicode="8"/><glyph d="M0 2304v512h256v-512h-256zM256 1280v256h512v-256h-512zM256 2048v256h768v512h256v-1024h-256v256h-768zM256 2816v256h768v-256h-768zM768 1536v256h256v-256h-256z" unicode="9"/><glyph d="M0 1280v512h256v-512h-256zM0 2304v512h256v-512h-256z" horiz-adv-x="512" unicode=":"/><glyph d="M0 1024v768h256v-768h-256zM0 2304v512h256v-512h-256z" horiz-adv-x="512" unicode=";"/><glyph d="M0 2048v256h256v-256h-256zM256 1792v256h256v-256h-256zM256 2304v256h256v-256h-256zM512 1536v256h256v-256h-256zM512 2560v256h256v-256h-256zM768 1280v256h256v-256h-256zM768 2816v256h256v-256h-256z" horiz-adv-x="1280" unicode="&lt;"/><glyph d="M0 1536v256h1280v-256h-1280zM0 2304v256h1280v-256h-1280z" unicode="="/><glyph d="M0 1280v256h256v-256h-256zM0 2816v256h256v-256h-256zM256 1536v256h256v-256h-256zM256 2560v256h256v-256h-256zM512 1792v256h256v-256h-256zM512 2304v256h256v-256h-256zM768 2048v256h256v-256h-256z" horiz-adv-x="1280" unicode="&gt;"/><glyph d="M0 2560v256h256v-256h-256zM256 2816v256h768v-256h-768zM512 1280v256h256v-256h-256zM512 1792v256h256v-256h-256zM768 2048v256h256v-256h-256zM1024 2304v512h256v-512h-256z" unicode="?"/><glyph d="M0 1536v1280h256v-1280h-256zM256 1280v256h1280v-256h-1280zM256 2816v256h1024v-256h-1024zM512 1792v768h512v-512h256v768h256v-1024h-1024z" horiz-adv-x="1792" unicode="@"/><glyph d="M0 1280v1536h256v-256h768v256h256v-1536h-256v1024h-768v-1024h-256zM256 2816v256h768v-256h-768z" unicode="A"/><glyph d="M0 1280v1792h1024v-256h-768v-256h768v-256h-768v-768h768v-256h-1024zM1024 1536v768h256v-768h-256zM1024 2560v256h256v-256h-256z" unicode="B"/><glyph d="M0 1536v1280h256v-1280h-256zM256 1280v256h768v-256h-768zM256 2816v256h768v-256h-768zM1024 1536v256h256v-256h-256zM1024 2560v256h256v-256h-256z" unicode="C"/><glyph d="M0 1280v1792h1024v-256h-768v-1280h768v-256h-1024zM1024 1536v1280h256v-1280h-256z" unicode="D"/><glyph d="M0 1280v1792h1280v-256h-1024v-256h512v-256h-512v-768h1024v-256h-1280z" unicode="E"/><glyph d="M0 1280v1792h1280v-256h-1024v-256h512v-256h-512v-1024h-256z" unicode="F"/><glyph d="M0 1536v1280h256v-1280h-256zM256 1280v256h768v-256h-768zM256 2816v256h1024v-256h-1024zM512 2304v256h768v-1024h-256v768h-512z" unicode="G"/><glyph d="M0 1280v1792h256v-512h768v512h256v-1792h-256v1024h-768v-1024h-256z" unicode="H"/><glyph d="M0 1280v256h256v1280h-256v256h768v-256h-256v-1280h256v-256h-768z" horiz-adv-x="1024" unicode="I"/><glyph d="M0 1536v256h256v-256h-256zM256 1280v256h768v-256h-768zM1024 1536v1536h256v-1536h-256z" unicode="J"/><glyph d="M0 1280v1792h256v-512h512v-256h-512v-1024h-256zM768 2048v256h256v-256h-256zM768 2560v256h256v-256h-256zM1024 1280v768h256v-768h-256zM1024 2816v256h256v-256h-256z" unicode="K"/><glyph d="M0 1280v1792h256v-1536h1024v-256h-1280z" unicode="L"/><glyph d="M0 1280v1792h256v-256h256v-256h-256v-1280h-256zM512 2304v256h256v-256h-256zM768 2560v256h256v256h256v-1792h-256v1280h-256z" unicode="M"/><glyph d="M0 1280v1792h256v-256h256v-256h-256v-1280h-256zM512 2304v256h256v-256h-256zM768 2048v256h256v768h256v-1792h-256v768h-256z" unicode="N"/><glyph d="M0 1536v1280h256v-1280h-256zM256 1280v256h768v-256h-768zM256 2816v256h768v-256h-768zM1024 1536v1280h256v-1280h-256z" unicode="O"/><glyph d="M0 1280v1792h1024v-256h-768v-256h768v-256h-768v-1024h-256zM1024 2560v256h256v-256h-256z" unicode="P"/><glyph d="M0 1536v1280h256v-1280h-256zM256 1280v256h512v-256h-512zM256 2816v256h768v-256h-768zM768 1536v256h256v-256h-256zM1024 1280v256h256v-256h-256zM1024 1792v1024h256v-1024h-256z" unicode="Q"/><glyph d="M0 1280v1792h1024v-256h-768v-256h768v-256h-768v-1024h-256zM1024 1280v1024h256v-1024h-256zM1024 2560v256h256v-256h-256z" unicode="R"/><glyph d="M0 1536v256h256v-256h-256zM0 2560v256h256v-256h-256zM256 1280v256h768v-256h-768zM256 2304v256h768v-256h-768zM256 2816v256h1024v-256h-1024zM1024 1536v768h256v-768h-256z" unicode="S"/><glyph d="M0 2816v256h1280v-256h-512v-1536h-256v1536h-512z" unicode="T"/><glyph d="M0 1536v1536h256v-1536h-256zM256 1280v256h768v-256h-768zM1024 1536v1536h256v-1536h-256z" unicode="U"/><glyph d="M0 2048v1024h256v-1024h-256zM256 1536v512h256v-512h-256zM512 1280v256h256v-256h-256zM768 1536v512h256v-512h-256zM1024 2048v1024h256v-1024h-256z" unicode="V"/><glyph d="M0 1280v1792h256v-1280h256v-256h-256v-256h-256zM512 1792v256h256v-256h-256zM768 1536v256h256v1280h256v-1792h-256v256h-256z" unicode="W"/><glyph d="M0 1280v768h256v-768h-256zM0 2816v256h256v-256h-256zM256 2048v256h256v-256h-256zM256 2560v256h256v-256h-256zM512 2304v256h256v-256h-256zM768 2048v256h256v-256h-256zM768 2560v256h256v-256h-256zM1024 1280v768h256v-768h-256zM1024 2816v256h256v-256h-256z" unicode="X"/><glyph d="M0 2816v256h256v-256h-256zM256 2560v256h256v-256h-256zM512 1280v1280h256v-1280h-256zM768 2560v256h256v-256h-256zM1024 2816v256h256v-256h-256z" unicode="Y"/><glyph d="M0 1280v512h256v-256h1024v-256h-1280zM0 2816v256h1280v-512h-256v256h-1024zM256 1792v256h256v-256h-256zM512 2048v256h256v-256h-256zM768 2304v256h256v-256h-256z" unicode="Z"/><glyph d="M0 1280v1792h768v-256h-512v-1280h512v-256h-768z" horiz-adv-x="1024" unicode="["/><glyph d="M0 2816v256h256v-256h-256zM256 2304v512h256v-512h-256zM512 2048v256h256v-256h-256zM768 1536v512h256v-512h-256zM1024 1280v256h256v-256h-256z" unicode="\"/><glyph d="M0 1280v256h512v1280h-512v256h768v-1792h-768z" horiz-adv-x="1024" unicode="]"/><glyph d="M0 2304v256h256v-256h-256zM256 2560v256h256v-256h-256zM512 2816v256h256v-256h-256zM768 2560v256h256v-256h-256zM1024 2304v256h256v-256h-256z" unicode="^"/><glyph d="M0 1024v256h1280v-256h-1280z" unicode="_"/><glyph d="M0 3072v256h256v-256h-256zM256 2816v256h256v-256h-256z" horiz-adv-x="768" unicode="`"/><glyph d="M0 1536v256h256v-256h-256zM256 1280v256h768v256h-768v256h768v256h256v-1024h-1024zM256 2304v256h768v-256h-768z" unicode="a"/><glyph d="M0 1280v1792h256v-768h256v-256h-256v-512h768v-256h-1024zM512 2304v256h512v-256h-512zM1024 1536v768h256v-768h-256z" unicode="b"/><glyph d="M0 1536v768h256v-768h-256zM256 1280v256h768v-256h-768zM256 2304v256h768v-256h-768zM1024 1536v256h256v-256h-256zM1024 2048v256h256v-256h-256z" unicode="c"/><glyph d="M0 1536v768h256v-768h-256zM256 1280v256h768v512h-256v256h256v768h256v-1792h-1024zM256 2304v256h512v-256h-512z" unicode="d"/><glyph d="M0 1536v768h256v-256h768v256h256v-512h-1024v-256h-256zM256 1280v256h1024v-256h-1024zM256 2304v256h768v-256h-768z" unicode="e"/><glyph d="M0 2304v256h256v256h256v-256h512v-256h-512v-1024h-256v1024h-256zM512 2816v256h512v-256h-512z" horiz-adv-x="1280" unicode="f"/><glyph d="M0 1024v256h1024v-256h-1024zM0 1792v512h256v-512h-256zM256 1536v256h768v512h-768v256h1024v-1280h-256v256h-768z" unicode="g"/><glyph d="M0 1280v1792h256v-768h256v-256h-256v-768h-256zM512 2304v256h512v-256h-512zM1024 1280v1024h256v-1024h-256z" unicode="h"/><glyph d="M0 1280v1280h256v-1280h-256zM0 2816v256h256v-256h-256z" horiz-adv-x="512" unicode="i"/><glyph d="M0 1280v512h256v-512h-256zM256 1024v256h768v-256h-768zM1024 1280v1280h256v-1280h-256zM1024 2816v256h256v-256h-256z" unicode="j"/><glyph d="M0 1280v1792h256v-1024h256v-256h-256v-512h-256zM512 1536v256h256v-256h-256zM512 2048v256h256v-256h-256zM768 1280v256h256v-256h-256zM768 2304v256h256v-256h-256z" horiz-adv-x="1280" unicode="k"/><glyph d="M0 1536v1536h256v-1536h-256zM256 1280v256h256v-256h-256z" horiz-adv-x="768" unicode="l"/><glyph d="M0 1280v1280h512v-256h-256v-1024h-256zM512 1792v512h256v-512h-256zM768 2304v256h256v-256h-256zM1024 1280v1024h256v-1024h-256z" unicode="m"/><glyph d="M0 1280v1280h1024v-256h-768v-1024h-256zM1024 1280v1024h256v-1024h-256z" unicode="n"/><glyph d="M0 1536v768h256v-768h-256zM256 1280v256h768v-256h-768zM256 2304v256h768v-256h-768zM1024 1536v768h256v-768h-256z" unicode="o"/><glyph d="M0 1024v1536h256v-256h256v-256h-256v-256h768v-256h-768v-512h-256zM512 2304v256h512v-256h-512zM1024 1792v512h256v-512h-256z" unicode="p"/><glyph d="M0 1792v512h256v-512h-256zM256 1536v256h768v256h-256v256h256v256h256v-1536h-256v512h-768zM256 2304v256h512v-256h-512z" unicode="q"/><glyph d="M0 1280v1280h256v-256h256v-256h-256v-768h-256zM512 2304v256h512v-256h-512zM1024 2048v256h256v-256h-256z" unicode="r"/><glyph d="M0 1280v256h1024v-256h-1024zM0 2048v256h256v-256h-256zM256 1792v256h768v-256h-768zM256 2304v256h1024v-256h-1024zM1024 1536v256h256v-256h-256z" unicode="s"/><glyph d="M0 2560v256h256v256h256v-256h256v-256h-256v-1024h-256v1024h-256zM512 1280v256h256v-256h-256z" horiz-adv-x="1024" unicode="t"/><glyph d="M0 1536v1024h256v-1024h-256zM256 1280v256h768v1024h256v-1280h-1024z" unicode="u"/><glyph d="M0 1792v768h256v-768h-256zM256 1536v256h256v-256h-256zM512 1280v256h256v-256h-256zM768 1536v256h256v-256h-256zM1024 1792v768h256v-768h-256z" unicode="v"/><glyph d="M0 1536v1024h256v-1024h-256zM256 1280v256h256v512h256v-512h256v1024h256v-1280h-1024z" unicode="w"/><glyph d="M0 1280v256h256v-256h-256zM0 2304v256h256v-256h-256zM256 1536v256h256v-256h-256zM256 2048v256h256v-256h-256zM512 1792v256h256v-256h-256zM768 1536v256h256v-256h-256zM768 2048v256h256v-256h-256zM1024 1280v256h256v-256h-256zM1024 2304v256h256v-256h-256z" unicode="x"/><glyph d="M0 1024v256h1024v-256h-1024zM0 1792v768h256v-768h-256zM256 1536v256h768v768h256v-1280h-256v256h-768z" unicode="y"/><glyph d="M0 1280v256h256v256h256v-256h768v-256h-1280zM0 2304v256h1280v-256h-256v-256h-256v256h-768zM512 1792v256h256v-256h-256z" unicode="z"/><glyph d="M0 2048v256h256v-256h-256zM256 1536v512h256v-512h-256zM256 2304v512h256v-512h-256zM512 1280v256h512v-256h-512zM512 2816v256h512v-256h-512z" horiz-adv-x="1280" unicode="{"/><glyph d="M0 1024v2048h256v-2048h-256z" horiz-adv-x="512" unicode="|"/><glyph d="M0 1280v256h512v-256h-512zM0 2816v256h512v-256h-512zM512 1536v512h256v-512h-256zM512 2304v512h256v-512h-256zM768 2048v256h256v-256h-256z" horiz-adv-x="1280" unicode="}"/><glyph d="M0 2560v256h256v-256h-256zM256 2816v256h512v-256h-512zM768 2560v256h512v-256h-512zM1280 2816v256h256v-256h-256z" horiz-adv-x="1792" unicode="~"/><glyph d="M0 1280v1280h256v-1280h-256zM0 2816v256h256v-256h-256z" horiz-adv-x="512" unicode="¡"/><glyph d="M0 1792v256h256v-256h-256zM256 1536v256h768v-256h-256v-256h-256v256h-256zM256 2048v256h256v256h256v-256h256v-256h-768z" horiz-adv-x="1280" unicode="¢"/><glyph d="M0 1280v256h256v512h-256v256h256v512h256v-512h512v-256h-512v-512h768v-256h-1280zM512 2816v256h768v-256h-768z" unicode="£"/><glyph d="M0 1536v256h256v-256h-256zM0 2560v256h256v-256h-256zM256 1792v768h768v-768h-768zM512 2048h256v256h-256v-256zM1024 1536v256h256v-256h-256zM1024 2560v256h256v-256h-256z" unicode="¤"/><glyph d="M0 2816v256h256v-256h-256zM256 1536v256h256v256h-256v256h256v256h256v-256h256v-256h-256v-256h256v-256h-256v-256h-256v256h-256zM256 2560v256h256v-256h-256zM768 2560v256h256v-256h-256zM1024 2816v256h256v-256h-256z" unicode="¥"/><glyph d="M0 1280v768h256v-768h-256zM0 2304v768h256v-768h-256z" horiz-adv-x="512" unicode="¦"/><glyph d="M0 1280v256h1024v-256h-1024zM0 2048v256h256v-256h-256zM0 2560v256h256v-256h-256zM256 1792v256h768v-256h-768zM256 2304v256h768v-256h-768zM256 2816v256h1024v-256h-1024zM1024 1536v256h256v-256h-256zM1024 2048v256h256v-256h-256z" unicode="§"/><glyph d="M256 2816v256h256v-256h-256zM768 2816v256h256v-256h-256z" horiz-adv-x="1280" unicode="¨"/><glyph d="M0 1536v1280h256v-1280h-256zM256 1280v256h1280v-256h-1280zM256 2816v256h1280v-256h-1280zM512 2048v256h256v-256h-256zM768 1792v256h512v-256h-512zM768 2304v256h512v-256h-512zM1536 1536v1280h256v-1280h-256z" horiz-adv-x="2048" unicode="©"/><glyph d="M0 1536v256h768v-256h-768zM0 2304v256h256v-256h-256zM0 2816v256h512v-256h256v-768h-512v256h256v256h-256v256h-256z" horiz-adv-x="1024" unicode="ª"/><glyph d="M0 1536v512h256v-512h-256zM256 1280v256h256v-256h-256zM256 2048v256h256v-256h-256zM512 1536v512h256v-512h-256zM768 1280v256h256v-256h-256zM768 2048v256h256v-256h-256z" horiz-adv-x="1280" unicode="«"/><glyph d="M0 2304v256h1024v-768h-256v512h-768z" horiz-adv-x="1280" unicode="¬"/><glyph d="M0 1792v256h1280v-256h-1280z" unicode="­"/><glyph d="M0 1536v1280h256v-1280h-256zM256 1280v256h1280v-256h-1280zM256 2816v256h1280v-256h-1280zM512 1792v768h768v-256h-256v-256h-256v-256h-256zM1024 1792v256h256v-256h-256zM1536 1536v1280h256v-1280h-256z" horiz-adv-x="2048" unicode="®"/><glyph d="M0 2816v256h1280v-256h-1280z" unicode="¯"/><glyph d="M0 2560v256h256v-256h-256zM256 2304v256h256v-256h-256zM256 2816v256h256v-256h-256zM512 2560v256h256v-256h-256z" horiz-adv-x="1024" unicode="°"/><glyph d="M0 1280v256h1280v-256h-1280zM0 2304v256h512v512h256v-512h512v-256h-512v-512h-256v512h-512z" unicode="±"/><glyph d="M0 2048v256h256v256h256v-256h256v-256h-768zM0 2816v256h512v-256h-512zM512 2560v256h256v-256h-256z" horiz-adv-x="1024" unicode="²"/><glyph d="M0 2048v256h512v-256h-512zM0 2816v256h512v-256h256v-512h-256v256h-256v256h-256z" horiz-adv-x="1024" unicode="³"/><glyph d="M0 2816v256h256v-256h-256zM256 3072v256h256v-256h-256z" horiz-adv-x="768" unicode="´"/><glyph d="M0 1024v1536h256v-1024h512v-256h-512v-256h-256zM768 1536v256h256v768h256v-1280h-256v256h-256z" unicode="µ"/><glyph d="M0 2304v512h256v256h1024v-1792h-256v1536h-256v-768h-512v256h-256z" unicode="¶"/><glyph d="M0 1792v256h256v-256h-256z" horiz-adv-x="512" unicode="·"/><glyph d="M256 768v256h256v256h256v-512h-512z" horiz-adv-x="1024" unicode="¸"/><glyph d="M0 2048v256h256v256h-256v256h256v256h256v-768h256v-256h-768z" horiz-adv-x="1024" unicode="¹"/><glyph d="M0 1536v256h768v-256h-768zM0 2304v512h256v-512h-256zM256 2048v256h256v-256h-256zM256 2816v256h256v-256h-256zM512 2304v512h256v-512h-256z" horiz-adv-x="1024" unicode="º"/><glyph d="M0 1280v256h256v-256h-256zM0 2048v256h256v-256h-256zM256 1536v512h256v-512h-256zM512 1280v256h256v-256h-256zM512 2048v256h256v-256h-256zM768 1536v512h256v-512h-256z" horiz-adv-x="1280" unicode="»"/><glyph d="M0 2048v256h256v256h-256v256h256v256h256v-768h256v-256h-768zM512 1280v256h256v-256h-256zM768 1536v512h256v-512h-256zM1024 2048v256h256v-256h-256zM1280 1536v512h256v-256h256v256h-256v256h512v-1024h-256v256h-512zM1280 2304v512h256v-512h-256zM1536 2816 v256h256v-256h-256z" horiz-adv-x="2304" unicode="¼"/><glyph d="M0 2048v256h256v256h-256v256h256v256h256v-768h256v-256h-768zM512 1280v256h256v-256h-256zM768 1536v512h256v-512h-256zM1024 2048v256h256v512h256v-512h256v-256h-768zM1280 1280v256h256v256h256v-256h256v-256h-768zM1536 2816v256h256v-256h-256zM1792 1792v256 h256v-256h-256z" horiz-adv-x="2304" unicode="½"/><glyph d="M0 2048v256h512v-256h-512zM0 2816v256h512v-256h256v-512h-256v256h-256v256h-256zM512 1280v256h256v-256h-256zM768 1536v512h256v-512h-256zM1024 2048v256h256v-256h-256zM1280 1536v512h256v-256h256v256h-256v256h512v-1024h-256v256h-512zM1280 2304v512h256 v-512h-256zM1536 2816v256h256v-256h-256z" horiz-adv-x="2304" unicode="¾"/><glyph d="M0 1536v512h256v-512h-256zM256 1280v256h768v-256h-768zM256 2048v256h256v-256h-256zM512 2304v256h256v-256h-256zM512 2816v256h256v-256h-256zM1024 1536v256h256v-256h-256z" unicode="¿"/><glyph d="M0 1280v1536h256v-256h768v256h256v-1536h-256v1024h-768v-1024h-256zM256 2816v256h256v256h256v-256h256v-256h-768zM256 3328v256h256v-256h-256z" unicode="À"/><glyph d="M0 1280v1536h256v-256h768v256h256v-1536h-256v1024h-768v-1024h-256zM256 2816v256h256v256h256v-256h256v-256h-768zM768 3328v256h256v-256h-256z" unicode="Á"/><glyph d="M0 1280v1536h256v-256h768v256h256v-1536h-256v1024h-768v-1024h-256zM256 2816v512h256v-256h256v256h256v-512h-768zM512 3328v256h256v-256h-256z" unicode="Â"/><glyph d="M0 1280v1536h256v-256h768v256h256v-1536h-256v1024h-768v-1024h-256zM0 3072v256h256v-256h-256zM256 2816v256h256v256h-256v256h512v-256h256v-512h-768zM1024 3328v256h256v-256h-256z" unicode="Ã"/><glyph d="M0 1280v1536h256v-256h768v256h256v-1536h-256v1024h-768v-1024h-256zM256 2816v256h768v-256h-768zM256 3328v256h256v-256h-256zM768 3328v256h256v-256h-256z" unicode="Ä"/><glyph d="M0 1280v1536h256v-256h768v256h256v-1536h-256v1024h-768v-1024h-256zM256 2816v768h768v-768h-768zM512 3072h256v256h-256v-256z" unicode="Å"/><glyph d="M0 1280v1536h256v-256h768v256h-768v256h2048v-256h-1024v-256h512v-256h-512v-768h1024v-256h-1280v1024h-768v-1024h-256z" horiz-adv-x="2560" unicode="Æ"/><glyph d="M0 1536v1280h256v-1280h-256zM256 768v256h256v256h-256v256h768v-256h-256v-512h-512zM256 2816v256h768v-256h-768zM1024 1536v256h256v-256h-256zM1024 2560v256h256v-256h-256z" unicode="Ç"/><glyph d="M0 1280v1792h512v256h256v-256h512v-256h-1024v-256h512v-256h-512v-768h1024v-256h-1280zM256 3328v256h256v-256h-256z" unicode="È"/><glyph d="M0 1280v1792h512v256h256v-256h512v-256h-1024v-256h512v-256h-512v-768h1024v-256h-1280zM768 3328v256h256v-256h-256z" unicode="É"/><glyph d="M0 1280v1792h256v256h256v-256h256v256h256v-256h256v-256h-1024v-256h512v-256h-512v-768h1024v-256h-1280zM512 3328v256h256v-256h-256z" unicode="Ê"/><glyph d="M0 1280v1792h1280v-256h-1024v-256h512v-256h-512v-768h1024v-256h-1280zM256 3328v256h256v-256h-256zM768 3328v256h256v-256h-256z" unicode="Ë"/><glyph d="M0 1280v256h256v1280h-256v256h256v256h256v-256h256v-256h-256v-1280h256v-256h-768zM0 3328v256h256v-256h-256z" horiz-adv-x="1024" unicode="Ì"/><glyph d="M0 1280v256h256v1280h-256v256h256v256h256v-256h256v-256h-256v-1280h256v-256h-768zM512 3328v256h256v-256h-256z" horiz-adv-x="1024" unicode="Í"/><glyph d="M0 1280v256h256v1280h-256v512h256v-256h256v256h256v-512h-256v-1280h256v-256h-768zM256 3328v256h256v-256h-256z" horiz-adv-x="1024" unicode="Î"/><glyph d="M0 1280v256h256v1280h-256v256h768v-256h-256v-1280h256v-256h-768zM0 3328v256h256v-256h-256zM512 3328v256h256v-256h-256z" horiz-adv-x="1024" unicode="Ï"/><glyph d="M0 2304v256h256v512h1024v-256h-768v-256h256v-256h-256v-768h768v-256h-1024v1024h-256zM1280 1536v1280h256v-1280h-256z" horiz-adv-x="1792" unicode="Ð"/><glyph d="M0 1280v2048h256v-512h256v-256h-256v-1280h-256zM256 3328v256h512v-256h256v-256h-512v256h-256zM512 2304v256h256v-256h-256zM768 2048v256h256v768h256v-1792h-256v768h-256zM1024 3328v256h256v-256h-256z" unicode="Ñ"/><glyph d="M0 1536v1280h256v-1280h-256zM256 1280v256h768v-256h-768zM256 2816v256h256v256h256v-256h256v-256h-768zM256 3328v256h256v-256h-256zM1024 1536v1280h256v-1280h-256z" unicode="Ò"/><glyph d="M0 1536v1280h256v-1280h-256zM256 1280v256h768v-256h-768zM256 2816v256h256v256h256v-256h256v-256h-768zM768 3328v256h256v-256h-256zM1024 1536v1280h256v-1280h-256z" unicode="Ó"/><glyph d="M0 1536v1280h256v-1280h-256zM256 1280v256h768v-256h-768zM256 2816v512h256v-256h256v256h256v-512h-768zM512 3328v256h256v-256h-256zM1024 1536v1280h256v-1280h-256z" unicode="Ô"/><glyph d="M0 1536v1280h256v-1280h-256zM0 3072v256h256v-256h-256zM256 1280v256h768v-256h-768zM256 2816v256h256v256h-256v256h512v-256h256v-512h-768zM1024 1536v1280h256v-1280h-256zM1024 3328v256h256v-256h-256z" unicode="Õ"/><glyph d="M0 1536v1280h256v-1280h-256zM256 1280v256h768v-256h-768zM256 2816v256h768v-256h-768zM256 3328v256h256v-256h-256zM768 3328v256h256v-256h-256zM1024 1536v1280h256v-1280h-256z" unicode="Ö"/><glyph d="M0 1280v256h256v-256h-256zM0 2048v256h256v-256h-256zM256 1536v512h512v-512h-512zM768 1280v256h256v-256h-256zM768 2048v256h256v-256h-256z" horiz-adv-x="1280" unicode="×"/><glyph d="M0 1280v256h256v-256h-256zM0 1792v1024h256v-768h256v-512h-256v256h-256zM256 2816v256h512v-256h-512zM512 1280v256h512v-256h-512zM512 2048v256h256v-256h-256zM768 2304v512h256v-256h256v-1024h-256v768h-256zM1024 2816v256h256v-256h-256z" unicode="Ø"/><glyph d="M0 1536v1536h256v-1536h-256zM256 1280v256h768v-256h-768zM256 3328v256h256v-256h-256zM512 3072v256h256v-256h-256zM1024 1536v1536h256v-1536h-256z" unicode="Ù"/><glyph d="M0 1536v1536h256v-1536h-256zM256 1280v256h768v-256h-768zM512 3072v256h256v-256h-256zM768 3328v256h256v-256h-256zM1024 1536v1536h256v-1536h-256z" unicode="Ú"/><glyph d="M0 1536v1536h256v-1536h-256zM256 1280v256h768v-256h-768zM256 3072v256h256v-256h-256zM512 3328v256h256v-256h-256zM768 3072v256h256v-256h-256zM1024 1536v1536h256v-1536h-256z" unicode="Û"/><glyph d="M0 1536v1536h256v-1536h-256zM256 1280v256h768v-256h-768zM256 3328v256h256v-256h-256zM768 3328v256h256v-256h-256zM1024 1536v1536h256v-1536h-256z" unicode="Ü"/><glyph d="M0 2816v256h256v-256h-256zM256 2560v256h256v-256h-256zM512 1280v1280h256v-1280h-256zM512 3072v256h256v-256h-256zM768 2560v256h256v-256h-256zM768 3328v256h256v-256h-256zM1024 2816v256h256v-256h-256z" unicode="Ý"/><glyph d="M0 1280v1792h256v-256h768v-256h-768v-256h768v-256h-768v-768h-256zM1024 2304v256h256v-256h-256z" unicode="Þ"/><glyph d="M0 1280v1536h256v-1536h-256zM256 2816v256h512v-256h-512zM512 1280v256h512v-256h-512zM512 2304v256h256v256h256v-512h-512zM1024 1536v768h256v-768h-256z" unicode="ß"/><glyph d="M0 1536v256h256v-256h-256zM256 1280v256h768v256h-768v256h768v256h256v-1024h-1024zM256 2304v256h768v-256h-768zM256 3072v256h256v-256h-256zM512 2816v256h256v-256h-256z" unicode="à"/><glyph d="M0 1536v256h256v-256h-256zM256 1280v256h768v256h-768v256h768v256h256v-1024h-1024zM256 2304v256h768v-256h-768zM512 2816v256h256v-256h-256zM768 3072v256h256v-256h-256z" unicode="á"/><glyph d="M0 1536v256h256v-256h-256zM256 1280v256h768v256h-768v256h768v256h256v-1024h-1024zM256 2304v256h768v-256h-768zM256 2816v256h256v-256h-256zM512 3072v256h256v-256h-256zM768 2816v256h256v-256h-256z" unicode="â"/><glyph d="M0 1536v256h256v-256h-256zM0 2816v256h256v-256h-256zM256 1280v256h768v256h-768v256h768v256h256v-1024h-1024zM256 2304v256h768v-256h-768zM256 3072v256h512v-256h256v-256h-512v256h-256zM1024 3072v256h256v-256h-256z" unicode="ã"/><glyph d="M0 1536v256h256v-256h-256zM256 1280v256h768v256h-768v256h768v256h256v-1024h-1024zM256 2304v256h768v-256h-768zM256 2816v256h256v-256h-256zM768 2816v256h256v-256h-256z" unicode="ä"/><glyph d="M0 1536v256h256v-256h-256zM256 1280v256h768v256h-768v256h768v256h256v-1024h-1024zM256 2304v256h768v-256h-768zM256 2816v768h768v-768h-768zM512 3072h256v256h-256v-256z" unicode="å"/><glyph d="M0 1536v256h256v-256h-256zM256 1280v256h768v-256h-768zM256 1792v256h768v256h256v-256h768v256h256v-512h-1024v-256h-256v256h-768zM256 2304v256h768v-256h-768zM1280 1280v256h768v-256h-768zM1280 2304v256h768v-256h-768z" horiz-adv-x="2560" unicode="æ"/><glyph d="M0 1536v768h256v-768h-256zM256 768v256h256v256h-256v256h768v-256h-256v-512h-512zM256 2304v256h768v-256h-768zM1024 1536v256h256v-256h-256zM1024 2048v256h256v-256h-256z" unicode="ç"/><glyph d="M0 1536v768h256v-256h768v256h256v-512h-1024v-256h-256zM256 1280v256h1024v-256h-1024zM256 2304v256h768v-256h-768zM256 3072v256h256v-256h-256zM512 2816v256h256v-256h-256z" unicode="è"/><glyph d="M0 1536v768h256v-256h768v256h256v-512h-1024v-256h-256zM256 1280v256h1024v-256h-1024zM256 2304v256h768v-256h-768zM512 2816v256h256v-256h-256zM768 3072v256h256v-256h-256z" unicode="é"/><glyph d="M0 1536v768h256v-256h768v256h256v-512h-1024v-256h-256zM256 1280v256h1024v-256h-1024zM256 2304v256h768v-256h-768zM256 2816v256h256v-256h-256zM512 3072v256h256v-256h-256zM768 2816v256h256v-256h-256z" unicode="ê"/><glyph d="M0 1536v768h256v-256h768v256h256v-512h-1024v-256h-256zM256 1280v256h1024v-256h-1024zM256 2304v256h768v-256h-768zM256 2816v256h256v-256h-256zM768 2816v256h256v-256h-256z" unicode="ë"/><glyph d="M-256 3072v256h256v-256h-256zM0 1280v1280h256v-1280h-256zM0 2816v256h256v-256h-256z" horiz-adv-x="512" unicode="ì"/><glyph d="M0 1280v1280h256v-1280h-256zM0 2816v256h256v-256h-256zM256 3072v256h256v-256h-256z" horiz-adv-x="768" unicode="í"/><glyph d="M-256 2816v256h256v-256h-256zM0 1280v1280h256v-1280h-256zM0 3072v256h256v-256h-256zM256 2816v256h256v-256h-256z" horiz-adv-x="768" unicode="î"/><glyph d="M-256 2816v256h256v-256h-256zM0 1280v1280h256v-1280h-256zM256 2816v256h256v-256h-256z" horiz-adv-x="768" unicode="ï"/><glyph d="M0 1536v256h256v-256h-256zM256 1280v256h768v-256h-768zM256 1792v256h768v512h256v-1024h-256v256h-768zM512 2304v256h256v-256h-256zM512 2816v256h256v-256h-256zM768 2560v256h256v-256h-256zM1024 2816v256h256v-256h-256z" unicode="ð"/><glyph d="M0 1280v1280h1024v-256h-768v-1024h-256zM0 2816v256h256v-256h-256zM256 3072v256h512v-256h256v-256h-512v256h-256zM1024 1280v1024h256v-1024h-256zM1024 3072v256h256v-256h-256z" unicode="ñ"/><glyph d="M0 1536v768h256v-768h-256zM256 1280v256h768v-256h-768zM256 2304v256h768v-256h-768zM256 3072v256h256v-256h-256zM512 2816v256h256v-256h-256zM1024 1536v768h256v-768h-256z" unicode="ò"/><glyph d="M0 1536v768h256v-768h-256zM256 1280v256h768v-256h-768zM256 2304v256h768v-256h-768zM512 2816v256h256v-256h-256zM768 3072v256h256v-256h-256zM1024 1536v768h256v-768h-256z" unicode="ó"/><glyph d="M0 1536v768h256v-768h-256zM256 1280v256h768v-256h-768zM256 2304v256h768v-256h-768zM256 2816v256h256v-256h-256zM512 3072v256h256v-256h-256zM768 2816v256h256v-256h-256zM1024 1536v768h256v-768h-256z" unicode="ô"/><glyph d="M0 1536v768h256v-768h-256zM0 2816v256h256v-256h-256zM256 1280v256h768v-256h-768zM256 2304v256h768v-256h-768zM256 3072v256h512v-256h256v-256h-512v256h-256zM1024 1536v768h256v-768h-256zM1024 3072v256h256v-256h-256z" unicode="õ"/><glyph d="M0 1536v768h256v-768h-256zM256 1280v256h768v-256h-768zM256 2304v256h768v-256h-768zM256 2816v256h256v-256h-256zM768 2816v256h256v-256h-256zM1024 1536v768h256v-768h-256z" unicode="ö"/><glyph d="M0 1792v256h1280v-256h-1280zM512 1280v256h256v-256h-256zM512 2304v256h256v-256h-256z" unicode="÷"/><glyph d="M0 1280v256h256v-256h-256zM0 1792v512h256v-512h-256zM256 1536v256h256v-256h-256zM256 2304v256h512v-256h-512zM512 1280v256h512v-256h-512zM512 1792v256h256v-256h-256zM768 2048v256h256v-256h-256zM1024 1536v512h256v-512h-256zM1024 2304v256h256v-256h-256z" unicode="ø"/><glyph d="M0 1536v1024h256v-1024h-256zM256 1280v256h768v1024h256v-1280h-1024zM256 3072v256h256v-256h-256zM512 2816v256h256v-256h-256z" unicode="ù"/><glyph d="M0 1536v1024h256v-1024h-256zM256 1280v256h768v1024h256v-1280h-1024zM512 2816v256h256v-256h-256zM768 3072v256h256v-256h-256z" unicode="ú"/><glyph d="M0 1536v1024h256v-1024h-256zM256 1280v256h768v1024h256v-1280h-1024zM256 2816v256h256v-256h-256zM512 3072v256h256v-256h-256zM768 2816v256h256v-256h-256z" unicode="û"/><glyph d="M0 1536v1024h256v-1024h-256zM256 1280v256h768v1024h256v-1280h-1024zM256 2816v256h256v-256h-256zM768 2816v256h256v-256h-256z" unicode="ü"/><glyph d="M0 1024v256h1024v-256h-1024zM0 1792v768h256v-768h-256zM256 1536v256h768v768h256v-1280h-256v256h-768zM512 2816v256h256v-256h-256zM768 3072v256h256v-256h-256z" unicode="ý"/><glyph d="M0 1024v2048h256v-768h256v-256h-256v-256h768v-256h-768v-512h-256zM512 2304v256h512v-256h-512zM1024 1792v512h256v-512h-256z" unicode="þ"/><glyph d="M0 1024v256h1024v-256h-1024zM0 1792v768h256v-768h-256zM256 1536v256h768v768h256v-1280h-256v256h-768z" unicode="ÿ"/><glyph d="M0 1536v1280h256v-1280h-256zM256 1280v256h768v1280h-768v256h2048v-256h-1024v-256h512v-256h-512v-768h1024v-256h-2048z" horiz-adv-x="2560" unicode="Œ"/><glyph d="M0 1536v768h256v-768h-256zM256 1280v256h768v-256h-768zM256 2304v256h768v-256h-768zM1024 1536v768h256v-256h768v256h256v-512h-1024v-256h-256zM1280 1280v256h1024v-256h-1024zM1280 2304v256h768v-256h-768z" horiz-adv-x="2560" unicode="œ"/><glyph d="M0 2816v256h256v-256h-256zM256 2560v256h256v-256h-256zM256 3328v256h256v-256h-256zM512 1280v1280h256v-1280h-256zM768 2560v256h256v-256h-256zM768 3328v256h256v-256h-256zM1024 2816v256h256v-256h-256z" unicode="Ÿ"/><glyph d="M0 2816v256h256v-256h-256zM256 3072v256h256v-256h-256zM512 2816v256h256v-256h-256z" horiz-adv-x="1024" unicode="ˆ"/><glyph d="M0 2816v256h256v-256h-256zM256 3072v256h512v-256h256v-256h-512v256h-256zM1024 3072v256h256v-256h-256z" unicode="˜"/><glyph horiz-adv-x="1792"/><glyph horiz-adv-x="3584"/><glyph horiz-adv-x="1792"/><glyph horiz-adv-x="3584"/><glyph horiz-adv-x="1194"/><glyph horiz-adv-x="896"/><glyph horiz-adv-x="597"/><glyph horiz-adv-x="597"/><glyph horiz-adv-x="448"/><glyph horiz-adv-x="716"/><glyph horiz-adv-x="199"/><glyph d="M0 1792v256h1280v-256h-1280z" unicode="‐"/><glyph d="M0 1792v256h1280v-256h-1280z" unicode="‑"/><glyph d="M0 1792v256h1280v-256h-1280z" unicode="‒"/><glyph d="M0 1792v256h1024v-256h-1024z" horiz-adv-x="1280" unicode="–"/><glyph d="M0 1792v256h2048v-256h-2048z" horiz-adv-x="2304" unicode="—"/><glyph d="M0 2304v512h256v-512h-256zM256 2816v256h256v-256h-256z" horiz-adv-x="768" unicode="‘"/><glyph d="M0 2304v256h256v-256h-256zM256 2560v512h256v-512h-256z" horiz-adv-x="768" unicode="’"/><glyph d="M0 1024v256h256v-256h-256zM256 1280v512h256v-512h-256z" horiz-adv-x="768" unicode="‚"/><glyph d="M0 2304v512h256v-512h-256zM256 2816v256h256v-256h-256zM512 2304v512h256v-512h-256zM768 2816v256h256v-256h-256z" horiz-adv-x="1280" unicode="“"/><glyph d="M0 2304v256h256v-256h-256zM256 2560v512h256v-512h-256zM512 2304v256h256v-256h-256zM768 2560v512h256v-512h-256z" horiz-adv-x="1280" unicode="”"/><glyph d="M0 1024v256h256v-256h-256zM256 1280v512h256v-512h-256zM512 1024v256h256v-256h-256zM768 1280v512h256v-512h-256z" horiz-adv-x="1280" unicode="„"/><glyph d="M0 1792v512h512v-512h-512z" horiz-adv-x="768" unicode="•"/><glyph d="M0 1280v512h256v-512h-256zM512 1280v512h256v-512h-256zM1024 1280v512h256v-512h-256z" unicode="…"/><glyph horiz-adv-x="716"/><glyph d="M0 1536v512h256v-512h-256zM256 1280v256h256v-256h-256zM256 2048v256h256v-256h-256z" horiz-adv-x="768" unicode="‹"/><glyph d="M0 1280v256h256v-256h-256zM0 2048v256h256v-256h-256zM256 1536v512h256v-512h-256z" horiz-adv-x="768" unicode="›"/><glyph horiz-adv-x="896"/><glyph d="M0 1536v1280h256v-256h512v-256h-512v-256h512v-256h-512v-256h-256zM256 1280v256h768v-256h-768zM256 2816v256h768v-256h-768zM1024 1536v256h256v-256h-256zM1024 2560v256h256v-256h-256z" unicode="€"/><glyph d="M0 2816v256h768v-256h-256v-768h-256v768h-256zM1024 2048v1024h256v-256h256v256h256v-1024h-256v512h-256v-512h-256z" horiz-adv-x="2048" unicode="™"/><glyph d="M0 0v2560h2560v-2560h-2560z" horiz-adv-x="2560" unicode="◼"/><glyph d="M0 2304v256h256v256h256v-256h1024v-1280h-256v1024h-768v-1024h-256v1024h-256zM512 2816v256h512v-256h-512zM1280 2816v256h256v-256h-256z" horiz-adv-x="1792" unicode="ﬁ"/><glyph d="M0 2304v256h256v256h256v-256h256v-256h-256v-1024h-256v1024h-256zM512 2816v256h1024v-1536h-256v1280h-768zM1536 1280v256h256v-256h-256z" horiz-adv-x="2048" unicode="ﬂ"/></font>
</defs>
</svg>
